<svg xmlns="http://www.w3.org/2000/svg" xmlns:xlink="http://www.w3.org/1999/xlink" width="202.846" height="161.263" viewBox="0 0 202.846 161.263">
  <defs>
    <linearGradient id="linear-gradient" x1="0.5" y1="1" x2="0.5" gradientUnits="objectBoundingBox">
      <stop offset="0" stop-color="gray" stop-opacity="0.251"/>
      <stop offset="0.54" stop-color="gray" stop-opacity="0.122"/>
      <stop offset="1" stop-color="gray" stop-opacity="0.102"/>
    </linearGradient>
  </defs>
  <g id="undraw_book_lover_mkck" transform="translate(0 -0.007)">
    <path id="Path_4" data-name="Path 4" d="M218.209,91.531c-12.835-.446-25.061-4.589-36.734-9.123S158.24,72.851,145.713,70.45c-8.058-1.545-17.273-1.763-23.764,2.556C115.7,77.171,113.681,84.34,112.6,91c-.817,5.009-1.3,10.281.942,14.971,1.553,3.256,4.311,5.993,6.217,9.123,6.638,10.852,1.947,24.234-5.245,34.83-3.371,4.972-7.288,9.717-9.89,15s-3.808,11.354-1.531,16.752c2.259,5.355,7.639,9.368,13.466,12.194,11.837,5.741,25.781,7.383,39.388,8.313,30.11,2.061,60.379,1.168,90.569.276,11.173-.331,22.394-.666,33.384-2.394,6.1-.96,12.4-2.481,16.837-6.158a14.1,14.1,0,0,0,3.25-18.42c-6.324-9.815-23.8-12.252-28.224-22.786-2.431-5.8.067-12.254,3.6-17.632,7.584-11.534,20.294-21.654,20.964-34.838.46-9.057-5.652-18.124-15.1-22.41-9.9-4.508-23.637-3.937-30.939,3.5C242.76,88.984,229.541,91.923,218.209,91.531Z" transform="translate(-99.247 -64.272)" fill="#6c63ff" opacity="0.1"/>
    <path id="Path_5" data-name="Path 5" d="M133.784,456.072,65.9,455.74l-6.745-15.82,23.849-1.731-4.157-17.345,47.171-6.114-45.17-15.7,3.99-.948,72.633,11.849-4,27.068-5.717,14.876Z" transform="translate(-47.428 -319.128)" fill="#6c63ff"/>
    <path id="Path_6" data-name="Path 6" d="M187,698.578s4.165-.666,6.663,2.277c0,0-1.832,1.444-5.775-.555Z" transform="translate(-167.482 -568.592)" fill="#6c63ff"/>
    <path id="Path_7" data-name="Path 7" d="M177.884,698.51s-2.657,3.27-1.349,6.911c0,0,2.166-.867,2.4-5.281Z" transform="translate(-158.802 -568.589)" fill="#6c63ff"/>
    <path id="Path_8" data-name="Path 8" d="M172.76,667.125s1.666-3.056,8.329,1.222a3.74,3.74,0,0,1-3.831,1.888C174.315,670.068,173.537,668.735,172.76,667.125Z" transform="translate(-156.066 -542.58)" fill="#6c63ff"/>
    <path id="Path_9" data-name="Path 9" d="M155.262,670.277s-3.457-.4-3.792,7.516a3.742,3.742,0,0,0,3.748-2.049C156.775,673.241,156.136,671.837,155.262,670.277Z" transform="translate(-138.998 -545.952)" fill="#6c63ff"/>
    <path id="Path_10" data-name="Path 10" d="M160.44,626.613s1.943-5.386,9-1.555c0,0-1.61,4.942-8.274,3.387Z" transform="translate(-146.189 -508.601)" fill="#6c63ff"/>
    <path id="Path_11" data-name="Path 11" d="M149.52,587.59s3.665-5.442,10.162-.4c0,0-2.277,5.109-9.606,2.332Z" transform="translate(-137.435 -477.63)" fill="#6c63ff"/>
    <path id="Path_12" data-name="Path 12" d="M145.6,550.237s4.276-5,10.709,0c0,0-4.054,4.387-10.709,1.277Z" transform="translate(-134.292 -447.94)" fill="#6c63ff"/>
    <path id="Path_13" data-name="Path 13" d="M142.24,511.97s4.331-5.22,10.495-.278c0,0-4.887,4.609-10.495,1.5Z" transform="translate(-131.598 -417.116)" fill="#6c63ff"/>
    <path id="Path_14" data-name="Path 14" d="M144.2,473.217s4.561-6.719,10.328-2.166c0,0-4.887,5.775-10.328,3.443Z" transform="translate(-133.17 -384.971)" fill="#6c63ff"/>
    <path id="Path_15" data-name="Path 15" d="M149.52,435.374s4.831-6.663,10.439-1.555c0,0-5.719,5.775-10.439,2.776Z" transform="translate(-137.435 -354.845)" fill="#6c63ff"/>
    <path id="Path_16" data-name="Path 16" d="M156.63,397.055s5.719-6.263,10.709-3.768c0,0-5.959,6.651-10.959,5.43Z" transform="translate(-142.934 -323.426)" fill="#6c63ff"/>
    <path id="Path_17" data-name="Path 17" d="M165.828,358.911s6.6-7.671,10.439-5.109c0,0-4.863,5.949-10.907,6.544Z" transform="translate(-150.133 -291.823)" fill="#6c63ff"/>
    <path id="Path_18" data-name="Path 18" d="M179.135,323.4s5.777-6.263,10-4.708c0,0-4.942,6.5-10.773,6.663Z" transform="translate(-160.555 -263.893)" fill="#6c63ff"/>
    <path id="Path_19" data-name="Path 19" d="M194.318,287.169s6.386-6,9.162-4.942c0,0-4.609,6.663-9.44,6.275Z" transform="translate(-173.126 -234.762)" fill="#6c63ff"/>
    <path id="Path_20" data-name="Path 20" d="M208.32,247.766s5.5-7.165,8.5-6.61c0,0-3.334,6.388-8.5,7.338Z" transform="translate(-184.574 -201.911)" fill="#6c63ff"/>
    <path id="Path_21" data-name="Path 21" d="M221.49,207.909s4.859-5.491,7.484-5.479c0,0-3.835,7.338-7.685,7.27Z" transform="translate(-194.972 -170.89)" fill="#6c63ff"/>
    <path id="Path_22" data-name="Path 22" d="M228.167,154.159l4.694-11.439s.234,10.34-5.291,13.561Z" transform="translate(-200.006 -123.021)" fill="#6c63ff"/>
    <path id="Path_23" data-name="Path 23" d="M240.062,95.03s.777-9.553.278-10.33c0,0,3.356,7.943-.309,14.55Z" transform="translate(-209.995 -76.507)" fill="#6c63ff"/>
    <path id="Path_24" data-name="Path 24" d="M127.108,635.353s-4.867-3.016-8.018,4.363c0,0,4.331,2.876,8.591-2.481Z" transform="translate(-113.039 -517.468)" fill="#6c63ff"/>
    <path id="Path_25" data-name="Path 25" d="M112.895,594.422s-5.969-2.723-8.865,4.982c0,0,4.611,3.173,9.408-3.034Z" transform="translate(-100.966 -484.769)" fill="#6c63ff"/>
    <path id="Path_26" data-name="Path 26" d="M100.909,552.548s-4.276-5-10.709,0c0,0,4.054,4.387,10.709,1.277Z" transform="translate(-89.879 -449.792)" fill="#6c63ff"/>
    <path id="Path_27" data-name="Path 27" d="M99.075,511.97s-4.331-5.22-10.495-.278c0,0,4.887,4.609,10.495,1.5Z" transform="translate(-88.58 -417.116)" fill="#6c63ff"/>
    <path id="Path_28" data-name="Path 28" d="M105.222,468.721s-3.038-7.526-9.642-4.29c0,0,3.57,6.673,9.372,5.539Z" transform="translate(-94.192 -380.284)" fill="#6c63ff"/>
    <path id="Path_29" data-name="Path 29" d="M112.167,428.861s-3.02-7.657-9.717-4.107c0,0,4.1,7.018,9.42,5.289Z" transform="translate(-99.699 -348.37)" fill="#6c63ff"/>
    <path id="Path_30" data-name="Path 30" d="M133.633,377.876s-1.19-8.395-6.743-9.146c0,0,1.178,8.853,6,10.659Z" transform="translate(-119.293 -304.21)" fill="#6c63ff"/>
    <path id="Path_31" data-name="Path 31" d="M148,339.447s-.464-10.114-5.055-10.467c0,0,.155,7.677,4.537,11.9Z" transform="translate(-132.16 -272.343)" fill="#6c63ff"/>
    <path id="Path_32" data-name="Path 32" d="M161.421,303.848s-1.368-8.411-5.751-9.438c0,0,.543,8.145,5.317,11.5Z" transform="translate(-142.365 -244.629)" fill="#6c63ff"/>
    <path id="Path_33" data-name="Path 33" d="M185.512,267.379s-.046-8.762-2.723-10.049c0,0-1.66,7.933,1.947,11.167Z" transform="translate(-163.8 -214.902)" fill="#6c63ff"/>
    <path id="Path_34" data-name="Path 34" d="M196.184,232.5s-.375-9.021-3.147-10.293c0,0-.948,7.139,2.733,10.884Z" transform="translate(-172.234 -186.747)" fill="#6c63ff"/>
    <path id="Path_35" data-name="Path 35" d="M213.572,197.069s-.016-7.338-2-9.059c0,0-1.967,8.038.962,10.535Z" transform="translate(-186.666 -159.329)" fill="#6c63ff"/>
    <path id="Path_36" data-name="Path 36" d="M218.651,149.212,216.726,137s-2.616,10.007,2.017,14.418Z" transform="translate(-190.723 -118.436)" fill="#6c63ff"/>
    <path id="Path_37" data-name="Path 37" d="M211.725,100.493s-4.942-8.21-4.841-9.123c0,0,.526,8.6,6.743,12.891Z" transform="translate(-183.421 -81.855)" fill="#6c63ff"/>
    <path id="Path_38" data-name="Path 38" d="M206.834,74.185s-4.664-11.661-6.774-12.6a14.78,14.78,0,0,1,7.163,12.272Z" transform="translate(-177.952 -57.973)" fill="#6c63ff"/>
    <path id="Path_39" data-name="Path 39" d="M219.879,144.793l-.319-.1c3.937-12.837,4.918-21.021,2.767-23.074l.228-.242C224.837,123.546,223.911,131.641,219.879,144.793Z" transform="translate(-193.585 -105.913)" fill="#444053"/>
    <path id="Path_40" data-name="Path 40" d="M164.6,265.7l-.472-.169c.418-1.176.869-2.37,1.341-3.546,4.109-10.241,7.607-19.768,9.85-27.082l.411-.2c-2.247,7.328-5.684,17.22-9.8,27.475C165.465,263.339,165.016,264.527,164.6,265.7Z" transform="translate(-149.147 -196.768)" fill="#444053"/>
    <path id="Path_41" data-name="Path 41" d="M155.065,457.151a64.87,64.87,0,0,1-10.892-19.52,72.223,72.223,0,0,1-4.3-22.366c-.305-9.545,1.7-20.2,5.128-29.884l.373.436c-7.7,21.729-4.643,40.349-.583,51.562a64.264,64.264,0,0,0,10.771,19.332Z" transform="translate(-129.679 -317.558)" fill="#444053"/>
    <path id="Path_42" data-name="Path 42" d="M550.123,670.36s-4.5,5.487-.926,13.783l-35.9,15.568-3.445.722-1.587-6.941,1.061-8.76v-4.787Z" transform="translate(-425.039 -546.022)" fill="#d5d6db"/>
    <path id="Path_43" data-name="Path 43" d="M59.16,572.447l49.682-9.057,65.831,10.487L133.784,588.6Z" transform="translate(-47.428 -451.655)" fill="#6c63ff"/>
    <path id="Path_44" data-name="Path 44" d="M59.16,572.447l49.682-9.057,65.831,10.487L133.784,588.6Z" transform="translate(-47.428 -451.655)" fill="#6c63ff"/>
    <path id="Path_45" data-name="Path 45" d="M140.179,652.47s-4.647,8.8.708,16.934l73.674,15.964s-4.573-7.012.236-16.746Z" transform="translate(-128.447 -531.68)" fill="#6c63ff"/>
    <path id="Path_46" data-name="Path 46" d="M140.179,652.47s-4.647,8.8.708,16.934l73.674,15.964s-4.573-7.012.236-16.746Z" transform="translate(-128.447 -531.68)" opacity="0.1"/>
    <path id="Path_47" data-name="Path 47" d="M154.039,667.86s-2.655,6.441,0,10.61" transform="translate(-140.111 -544.018)" opacity="0.1"/>
    <path id="Path_48" data-name="Path 48" d="M224.984,747.411l41.131-17.551s2.3.5.813,2.181S225.778,749.1,225.778,749.1l-74.468-17.65Z" transform="translate(-138.87 -593.722)" fill="#6c63ff"/>
    <path id="Path_49" data-name="Path 49" d="M224.984,747.411l41.131-17.551s2.3.5.813,2.181S225.778,749.1,225.778,749.1l-74.468-17.65Z" transform="translate(-138.87 -593.722)" opacity="0.1"/>
    <path id="Path_50" data-name="Path 50" d="M498.684,742.86s-3.966,4.76,0,11.9" transform="translate(-415.941 -604.144)" opacity="0.1"/>
    <rect id="Rectangle_6" data-name="Rectangle 6" width="18.755" height="0.198" transform="translate(84.155 144.571) rotate(-18.45)" opacity="0.1"/>
    <rect id="Rectangle_7" data-name="Rectangle 7" width="22.852" height="0.198" transform="translate(84.149 146.167) rotate(-20.82)" opacity="0.1"/>
    <rect id="Rectangle_8" data-name="Rectangle 8" width="26.487" height="0.198" transform="translate(84.268 148.049) rotate(-22.26)" opacity="0.1"/>
    <rect id="Rectangle_9" data-name="Rectangle 9" width="30.489" height="0.198" transform="translate(84.554 149.709) rotate(-24.31)" opacity="0.1"/>
    <rect id="Rectangle_10" data-name="Rectangle 10" width="33.347" height="0.198" transform="matrix(0.916, -0.401, 0.401, 0.916, 84.774, 150.517)" opacity="0.1"/>
    <rect id="Rectangle_11" data-name="Rectangle 11" width="39.905" height="0.198" transform="translate(85.236 151.873) rotate(-23.36)" opacity="0.1"/>
    <path id="Path_51" data-name="Path 51" d="M152.23,584.278l34.9-7.338,21.263,4.065-28.6,9.222Z" transform="translate(-122.04 -462.518)" fill="#fff" opacity="0.3"/>
    <path id="Path_52" data-name="Path 52" d="M564.895,659.69s1.8.728.746,1.852S524,674.411,524,674.411Z" transform="translate(-437.649 -537.468)" fill="#6c63ff"/>
    <path id="Path_53" data-name="Path 53" d="M649.421,574.18s-4.494,5.485-.924,13.783l-35.9,15.568-3.445.726-1.587-6.941,1.077-8.758v-4.793Z" transform="translate(-504.646 -468.916)" fill="#d5d6db"/>
    <path id="Path_54" data-name="Path 54" d="M158.46,476.265l49.68-9.055L273.973,477.7l-40.889,14.721Z" transform="translate(-127.035 -374.549)" fill="#3a3768"/>
    <path id="Path_55" data-name="Path 55" d="M239.434,556.29s-4.649,8.8.706,16.934l73.674,15.964s-4.571-7.018.244-16.748Z" transform="translate(-208.017 -454.574)" fill="#3a3768"/>
    <path id="Path_56" data-name="Path 56" d="M239.434,556.29s-4.649,8.8.706,16.934l73.674,15.964s-4.571-7.018.244-16.748l-23.3-5.043Z" transform="translate(-208.017 -454.574)" opacity="0.1"/>
    <path id="Path_57" data-name="Path 57" d="M253.333,571.68s-2.653,6.439,0,10.61" transform="translate(-219.714 -466.912)" opacity="0.1"/>
    <path id="Path_58" data-name="Path 58" d="M324.274,651.231l41.133-17.551s2.3.5.811,2.181-41.151,17.055-41.151,17.055L250.6,635.266Z" transform="translate(-218.469 -516.616)" fill="#3a3768"/>
    <path id="Path_59" data-name="Path 59" d="M324.274,651.231l41.133-17.551s2.3.5.811,2.181-41.151,17.055-41.151,17.055L250.6,635.266Z" transform="translate(-218.469 -516.616)" opacity="0.1"/>
    <path id="Path_60" data-name="Path 60" d="M597.974,646.68s-3.966,4.76,0,11.9" transform="translate(-495.54 -527.038)" opacity="0.1"/>
    <rect id="Rectangle_12" data-name="Rectangle 12" width="18.755" height="0.198" transform="translate(103.848 125.499) rotate(-18.45)" opacity="0.1"/>
    <rect id="Rectangle_13" data-name="Rectangle 13" width="22.852" height="0.198" transform="translate(103.844 127.095) rotate(-20.82)" opacity="0.1"/>
    <rect id="Rectangle_14" data-name="Rectangle 14" width="26.487" height="0.198" transform="translate(103.96 128.974) rotate(-22.26)" opacity="0.1"/>
    <rect id="Rectangle_15" data-name="Rectangle 15" width="30.489" height="0.198" transform="translate(104.248 130.634) rotate(-24.31)" opacity="0.1"/>
    <rect id="Rectangle_16" data-name="Rectangle 16" width="33.347" height="0.198" transform="matrix(0.916, -0.401, 0.401, 0.916, 104.466, 131.439)" opacity="0.1"/>
    <rect id="Rectangle_17" data-name="Rectangle 17" width="39.905" height="0.198" transform="translate(104.928 132.795) rotate(-23.36)" opacity="0.1"/>
    <path id="Path_61" data-name="Path 61" d="M251.53,488.1l34.9-7.338,21.263,4.065-28.6,9.222Z" transform="translate(-201.648 -385.412)" fill="#fff" opacity="0.45"/>
    <path id="Path_62" data-name="Path 62" d="M664.219,563.51s1.8.728.746,1.85-41.634,12.869-41.634,12.869Z" transform="translate(-517.281 -460.362)" fill="#3a3768"/>
    <path id="Path_63" data-name="Path 63" d="M658.845,464.15s-4.5,9.85-.926,18.146l-35.9,11.2-3.437.728L617,487.288l1.061-8.76v-4.793Z" transform="translate(-512.206 -380.706)" fill="#d5d6db"/>
    <path id="Path_64" data-name="Path 64" d="M167.89,366.237l49.682-9.057,65.833,10.487-40.891,14.721Z" transform="translate(-134.595 -286.339)" fill="#6c63ff"/>
    <path id="Path_65" data-name="Path 65" d="M248.887,446.26s-4.654,8.8.7,16.934l73.674,15.964s-4.573-7.018.242-16.746Z" transform="translate(-215.592 -366.364)" fill="#6c63ff"/>
    <path id="Path_66" data-name="Path 66" d="M248.887,446.26s-4.654,8.8.7,16.934l73.674,15.964s-4.573-7.018.242-16.746Z" transform="translate(-215.592 -366.364)" opacity="0.1"/>
    <path id="Path_67" data-name="Path 67" d="M262.769,461.65s-2.655,6.441,0,10.61" transform="translate(-227.278 -378.702)" opacity="0.1"/>
    <path id="Path_68" data-name="Path 68" d="M333.714,547.614l41.131-13.188s2.3.5.813,2.182S334.508,549.3,334.508,549.3L260.04,531.65Z" transform="translate(-226.037 -434.82)" fill="#6c63ff"/>
    <path id="Path_69" data-name="Path 69" d="M333.714,547.614l41.131-13.188s2.3.5.813,2.182S334.508,549.3,334.508,549.3L260.04,531.65Z" transform="translate(-226.037 -434.82)" opacity="0.1"/>
    <path id="Path_70" data-name="Path 70" d="M607.414,536.65s-3.966,4.76,0,11.9" transform="translate(-503.108 -438.829)" opacity="0.1"/>
    <rect id="Rectangle_18" data-name="Rectangle 18" width="18.755" height="0.198" transform="translate(105.72 103.678) rotate(-18.45)" opacity="0.1"/>
    <rect id="Rectangle_19" data-name="Rectangle 19" width="22.852" height="0.198" transform="translate(105.715 105.275) rotate(-20.82)" opacity="0.1"/>
    <rect id="Rectangle_20" data-name="Rectangle 20" width="26.487" height="0.198" transform="translate(105.829 107.155) rotate(-22.26)" opacity="0.1"/>
    <rect id="Rectangle_21" data-name="Rectangle 21" width="30.489" height="0.198" transform="translate(106.121 108.813) rotate(-24.31)" opacity="0.1"/>
    <rect id="Rectangle_22" data-name="Rectangle 22" width="33.347" height="0.198" transform="matrix(0.916, -0.401, 0.401, 0.916, 106.339, 109.62)" opacity="0.1"/>
    <rect id="Rectangle_23" data-name="Rectangle 23" width="39.905" height="0.198" transform="translate(106.801 110.978) rotate(-23.36)" opacity="0.1"/>
    <path id="Path_71" data-name="Path 71" d="M260.96,378.068l34.9-7.338,21.263,4.065-28.6,9.222Z" transform="translate(-209.207 -297.202)" fill="#fff" opacity="0.3"/>
    <path id="Path_72" data-name="Path 72" d="M673.649,453.48s1.8.728.746,1.852S632.76,468.2,632.76,468.2Z" transform="translate(-524.841 -372.153)" fill="#6c63ff"/>
    <path id="Path_73" data-name="Path 73" d="M371.806,149.881s-7.536-.454-6.655,4.833a1.29,1.29,0,0,0,.67,1.358s.014-.4.773-.26a3.381,3.381,0,0,0,.821.04,1.71,1.71,0,0,0,1-.413h0s2.12-.877,2.945-4.343c0,0,.611-.756.595-.95l-1.277.543a2.288,2.288,0,0,1,.093,1.682s-.042-1.648-.288-1.61c-.05,0-.66.319-.66.319a3.764,3.764,0,0,1,.182,2.763s.214-1.971-.416-2.648l-.9.524a3.956,3.956,0,0,1,.282,3s.153-2.068-.47-2.874l-.813.635a3.865,3.865,0,0,1,.321,2.747s-.065-2.408-.5-2.59a4.9,4.9,0,0,0-.819.884s.563,1.19.212,1.807c0,0-.212-1.6-.4-1.612a5.339,5.339,0,0,0-.781,1.785,3.859,3.859,0,0,1,.609-1.892,2.124,2.124,0,0,0-1.083.561s.109-.752,1.259-.817a4.875,4.875,0,0,1,.742-.855,4.642,4.642,0,0,0-1.836.21,2.08,2.08,0,0,1,2.045-.4l.793-.654a6.843,6.843,0,0,0-2.142.022,2.61,2.61,0,0,1,2.358-.171l.875-.522a7.947,7.947,0,0,0-2.047-.177,3.141,3.141,0,0,1,2.3.036l.623-.28s-.938-.184-1.214-.214-.29-.105-.29-.105a3.274,3.274,0,0,1,1.765.2A7.87,7.87,0,0,0,371.806,149.881Z" transform="translate(-310.245 -128.754)" fill="#6c63ff"/>
    <path id="Path_74" data-name="Path 74" d="M906.406,259.461s-7.536-.454-6.655,4.833a1.29,1.29,0,0,0,.67,1.358s.014-.4.773-.26a3.5,3.5,0,0,0,.821.04,1.7,1.7,0,0,0,.992-.413h0s2.122-.877,2.945-4.343c0,0,.611-.756.595-.95l-1.273.543a2.288,2.288,0,0,1,.093,1.682s-.042-1.648-.286-1.61c-.05,0-.662.319-.662.319a3.771,3.771,0,0,1,.184,2.763s.214-1.971-.418-2.648l-.9.524a3.956,3.956,0,0,1,.282,3s.153-2.068-.47-2.874l-.811.635a3.868,3.868,0,0,1,.319,2.747s-.065-2.408-.5-2.59a4.972,4.972,0,0,0-.819.885s.563,1.19.214,1.807c0,0-.214-1.6-.4-1.612a5.338,5.338,0,0,0-.781,1.785,3.847,3.847,0,0,1,.611-1.892,2.134,2.134,0,0,0-1.085.561s.111-.752,1.259-.817a4.951,4.951,0,0,1,.742-.857,4.661,4.661,0,0,0-1.836.212,2.08,2.08,0,0,1,2.045-.4l.793-.654a6.845,6.845,0,0,0-2.142.022,2.607,2.607,0,0,1,2.358-.171l.873-.522a7.947,7.947,0,0,0-2.047-.177,3.141,3.141,0,0,1,2.3.036l.625-.28s-.94-.184-1.216-.214-.29-.105-.29-.105a3.251,3.251,0,0,1,1.765.2A8,8,0,0,0,906.406,259.461Z" transform="translate(-738.825 -216.602)" fill="#6c63ff" opacity="0.1"/>
    <path id="Path_75" data-name="Path 75" d="M429.347,296.9s-3.284-6.808-7.465-3.453a1.288,1.288,0,0,0-.859,1.247s.347-.18.595.549a3.514,3.514,0,0,0,.365.734,1.712,1.712,0,0,0,.851.674h0s1.8,1.424,5.228.452a3.392,3.392,0,0,0,1.115.05l-1.095-.847a2.3,2.3,0,0,1-1.424.9s1.42-.839,1.267-1.033c-.032-.04-.595-.422-.595-.422a3.766,3.766,0,0,1-2.322,1.507s1.824-.773,2.106-1.656l-.892-.528a3.957,3.957,0,0,1-2.483,1.709s1.88-.875,2.279-1.811l-.948-.4s-1.021,1.511-2.243,1.62c0,0,2.07-1.232,2.019-1.7a5.026,5.026,0,0,0-1.172-.284s-.758,1.069-1.471,1.069c0,0,1.3-.97,1.216-1.126a5.231,5.231,0,0,0-1.943.2,3.861,3.861,0,0,1,1.949-.4,2.136,2.136,0,0,0-1.019-.672s.71-.27,1.327.7a4.892,4.892,0,0,1,1.109.23,4.656,4.656,0,0,0-1.079-1.5s.916.184,1.335,1.587l.962.381a6.615,6.615,0,0,0-1.063-1.858s.9.335,1.3,1.983l.881.508a7.848,7.848,0,0,0-.843-1.872,3.143,3.143,0,0,1,1.091,2.027l.549.409s-.3-.91-.4-1.164-.05-.305-.05-.305a3.254,3.254,0,0,1,.69,1.636A7.4,7.4,0,0,0,429.347,296.9Z" transform="translate(-355.094 -243.116)" fill="#6c63ff" opacity="0.1"/>
    <path id="Path_76" data-name="Path 76" d="M813.128,193.285s-3.282-6.808-7.465-3.453a1.29,1.29,0,0,0-.859,1.247s.349-.178.595.549a3.439,3.439,0,0,0,.367.736,1.7,1.7,0,0,0,.849.672h0s1.8,1.424,5.228.454a3.408,3.408,0,0,0,1.117.048l-1.089-.849a2.3,2.3,0,0,1-1.422.9s1.418-.841,1.265-1.035c-.032-.04-.595-.422-.595-.422a3.759,3.759,0,0,1-2.322,1.507s1.826-.773,2.108-1.654l-.906-.524a3.958,3.958,0,0,1-2.483,1.709s1.88-.877,2.281-1.813l-.95-.4s-1.021,1.513-2.241,1.62c0,0,2.068-1.232,2.017-1.7a4.906,4.906,0,0,0-1.17-.284s-.758,1.067-1.474,1.067c0,0,1.3-.97,1.218-1.126a5.244,5.244,0,0,0-1.945.2,3.859,3.859,0,0,1,1.949-.4,2.124,2.124,0,0,0-1.017-.672s.71-.27,1.327.7a4.909,4.909,0,0,1,1.109.232,4.64,4.64,0,0,0-1.081-1.5s.916.186,1.335,1.6l.964.381a6.617,6.617,0,0,0-1.063-1.86s.9.335,1.3,1.983l.883.508a7.921,7.921,0,0,0-.845-1.872,3.133,3.133,0,0,1,1.091,2.027l.549.409s-.3-.91-.4-1.164-.05-.3-.05-.3a3.263,3.263,0,0,1,.688,1.636A7.614,7.614,0,0,0,813.128,193.285Z" transform="translate(-662.765 -160.045)" fill="#6c63ff" opacity="0.1"/>
    <path id="Path_77" data-name="Path 77" d="M865.994,363.088s-3.282-6.81-7.471-3.455a1.29,1.29,0,0,0-.859,1.247s.349-.178.595.549a3.435,3.435,0,0,0,.365.736,1.7,1.7,0,0,0,.849.672h0s1.8,1.426,5.23.454c0,0,.956.165,1.115.048l-1.095-.847a2.3,2.3,0,0,1-1.424.9s1.418-.841,1.265-1.035c-.032-.04-.595-.422-.595-.422a3.767,3.767,0,0,1-2.322,1.509s1.826-.775,2.108-1.656l-.894-.528a3.951,3.951,0,0,1-2.483,1.71s1.88-.877,2.281-1.813l-.95-.4s-1.021,1.511-2.241,1.62c0,0,2.07-1.232,2.019-1.7a4.926,4.926,0,0,0-1.172-.284s-.758,1.067-1.473,1.067c0,0,1.3-.97,1.218-1.126a5.244,5.244,0,0,0-1.945.2,3.871,3.871,0,0,1,1.951-.4,2.12,2.12,0,0,0-1.019-.672s.71-.272,1.327.7a4.891,4.891,0,0,1,1.109.23,4.677,4.677,0,0,0-1.079-1.5s.916.186,1.335,1.6l.962.381a6.588,6.588,0,0,0-1.063-1.858s.9.333,1.3,1.983l.883.506a7.921,7.921,0,0,0-.845-1.872,3.14,3.14,0,0,1,1.093,2.029l.549.4s-.3-.91-.4-1.164-.05-.3-.05-.3a3.243,3.243,0,0,1,.688,1.636A8.03,8.03,0,0,0,865.994,363.088Z" transform="translate(-705.142 -296.172)" fill="#6c63ff" opacity="0.1"/>
    <ellipse id="Ellipse_1" data-name="Ellipse 1" cx="4.559" cy="0.51" rx="4.559" ry="0.51" transform="translate(35.491 154.498)" fill="#6c63ff" opacity="0.1"/>
    <ellipse id="Ellipse_2" data-name="Ellipse 2" cx="4.559" cy="0.51" rx="4.559" ry="0.51" transform="translate(5.602 145.836)" fill="#6c63ff" opacity="0.1"/>
    <ellipse id="Ellipse_3" data-name="Ellipse 3" cx="4.559" cy="0.51" rx="4.559" ry="0.51" transform="translate(58.273 160.251)" fill="#6c63ff" opacity="0.1"/>
    <ellipse id="Ellipse_4" data-name="Ellipse 4" cx="4.559" cy="0.51" rx="4.559" ry="0.51" transform="translate(175.022 147.72)" fill="#6c63ff" opacity="0.1"/>
    <ellipse id="Ellipse_5" data-name="Ellipse 5" cx="4.559" cy="0.51" rx="4.559" ry="0.51" transform="translate(137.082 145.247)" fill="#6c63ff" opacity="0.1"/>
    <ellipse id="Ellipse_6" data-name="Ellipse 6" cx="5.392" cy="0.926" rx="5.392" ry="0.926" transform="translate(111.705 156.475)" fill="#6c63ff" opacity="0.1"/>
    <path id="Path_78" data-name="Path 78" d="M672,790.14s-7.508,3.879-3.629,8.448a1.451,1.451,0,0,0,1.42.922s-.21-.385.595-.692a3.872,3.872,0,0,0,.811-.43,1.906,1.906,0,0,0,.726-.97h0s1.535-2.055.345-5.856a3.767,3.767,0,0,0,.02-1.249l-.912,1.251a2.555,2.555,0,0,1,1.051,1.563s-.992-1.561-1.19-1.388c-.044.036-.452.684-.452.684a4.2,4.2,0,0,1,1.755,2.548s-.92-2.017-1.914-2.3l-.569,1.015a4.41,4.41,0,0,1,1.983,2.721s-1.037-2.072-2.1-2.491l-.418,1.073s1.721,1.095,1.88,2.455c0,0-1.44-2.275-1.957-2.2a5.5,5.5,0,0,0-.282,1.319s1.216.813,1.237,1.612c0,0-1.122-1.418-1.295-1.325a5.976,5.976,0,0,0,.274,2.168,4.279,4.279,0,0,1-.5-2.168,2.38,2.38,0,0,0-.72,1.158s-.323-.783.742-1.505a5.488,5.488,0,0,1,.224-1.245,5.226,5.226,0,0,0-1.642,1.253s.18-1.029,1.743-1.541l.4-1.087a7.392,7.392,0,0,0-2.045,1.245s.347-1.021,2.168-1.511l.539-.992a9.106,9.106,0,0,0-2.066.992,3.512,3.512,0,0,1,2.233-1.283l.438-.625s-1.007.359-1.289.488-.337.065-.337.065a3.647,3.647,0,0,1,1.807-.821A8.828,8.828,0,0,0,672,790.14Z" transform="translate(-552.498 -642.048)" fill="#6c63ff"/>
    <path id="Path_79" data-name="Path 79" d="M531.631,118.249c-1.3-3.524-8.436-3.855-11.534-2.957a92.605,92.605,0,0,1-9.321,1.725l-.161-.153c.321-.1.329-.329.289-.676a10.594,10.594,0,0,1,.02-1.372,3.379,3.379,0,0,0,2.872-.645h0c1.785-.793,1.3-4.188,1.646-5.117a58.838,58.838,0,0,0,.654-6.822h.026l.014-.684c.018-.3.026-.468.026-.468a46.89,46.89,0,0,1,.516-6,52.471,52.471,0,0,0,.615-6.346v-.1l-.026-.432c.018-.315.026-.666.024-1.035,0-1.7-.177-3.831-.2-4.177v-.18c.014-.724-.077-4.349-3.161-5.719-1.136-.508-2.5-1.113-3.826-1.7-.341-2.945-1.12-5.874-1.053-8.841,0-.446.04-.892.083-1.337,0,.129-.014.26-.016.4v.865c.117-3.71,1.519-7.441,1.388-11.072-.012.355-.038.712-.071,1.069a11.528,11.528,0,0,0-.381-3.647,2.158,2.158,0,0,0-.623-1.13,2.564,2.564,0,0,0-1.087-.43,21.856,21.856,0,0,0-2.854-.531,4.405,4.405,0,0,0-.643-1.247c-2.011-2.761-4.99-5.355-8.512-5.949a5.657,5.657,0,0,0-5,1.214,3.753,3.753,0,0,0-.353.357c-.647.771-.924,1.785-1.587,2.554-.044.052-.093.1-.141.149-1.3,1.16-3.318,1.4-4.76,2.443a5.715,5.715,0,0,0-.712.621,12.072,12.072,0,0,0-1.555,1.89,7.839,7.839,0,0,0-1.521,2.951c-.414,2.181,1.071,4.25,1.347,6.445.615,4.912-4.821,9.271-3.792,14.118a6.465,6.465,0,0,0,1.749,3.139c-2.12,1.92-3.925,3.782-3.925,3.782v.111h-.335l.034.4h-.034l.184,2.152L475.754,89v.3h.012a50.116,50.116,0,0,0,.595,6.148,46.831,46.831,0,0,1,.514,6s.377,7.046.722,7.978-.145,4.317,1.646,5.117h0a3.768,3.768,0,0,0,1.8.746c-.091.742-.034,1.279.262,1.448a.865.865,0,0,0,.416.119,4.418,4.418,0,0,0-.323.565,8.4,8.4,0,0,1-2.078-.49c-1.924-.793-8.307-2.578-10.162-1.323s-6.316,2.394-4.256,7.447,3.02,5.18,3.02,5.18a7.338,7.338,0,0,1,1.648,1.656c.619.93,6.384,3.058,7.826,3.058a14.116,14.116,0,0,1,1.834.091s-1.565,1.372-1.357,2.17-.476,7.179-.476,7.179,1.587,1.6,2.265-.5l.024.032c.127.173.813.952,2.1-.032a11.8,11.8,0,0,1,1.678-1.063l6.251-.884a17.694,17.694,0,0,1,1.957-.014,4.09,4.09,0,0,0,2.578-.96c1.3.492,2.751,1.029,3.443,1.226,1.4.4,7.857,2.128,9.366,1.587a2.1,2.1,0,0,0,.813-.579l1.44.046-.674.135s1.313.022,3.1.046l-.075.044,2.239-.02c3.276.03,6.957.04,7.441-.069a52.269,52.269,0,0,1,5.854,0h.323s4.325-.863,2.54-5.251c-1.372-3.371-5.591-4.351-7.463-4.621.528-.105.982-.186,1.283-.234a10.164,10.164,0,0,0,4.052-1.795c.206-.407,2.334-1.587,2.883-2.259S532.934,121.773,531.631,118.249Zm-35.826,9.862-.212.069-.143.048-.274.27c-.218-.147-.452-.3-.7-.46C494.911,128.063,495.353,128.089,495.805,128.111Zm18.9,5.589Z" transform="translate(-389.843 -43.42)" fill="url(#linear-gradient)"/>
    <path id="Path_80" data-name="Path 80" d="M686.65,266.128s3.034,7.933,4.76,7.139,1.257-4.165,1.587-5.089.694-7.933.694-7.933a47.941,47.941,0,0,1,.5-5.961,54.64,54.64,0,0,0,.595-6.3v-.1l-.327-5.751-1.852-.462-4.3,1.587-.595,3.4-.232,1.327-.1.565Z" transform="translate(-568.043 -202.348)" fill="#be6f72"/>
    <path id="Path_81" data-name="Path 81" d="M691.69,358.3s2.9,2.37,3.768,2.578,1.408,2.057,1.408,2.057" transform="translate(-572.084 -295.848)" opacity="0.1"/>
    <path id="Path_82" data-name="Path 82" d="M534.131,267.878s-3.034,7.933-4.76,7.139-1.257-4.165-1.587-5.089-.694-7.933-.694-7.933a47.953,47.953,0,0,0-.5-5.961,54.639,54.639,0,0,1-.595-6.3v-.1l.329-5.751,1.852-.462,4.3,1.587.595,3.4.232,1.327.1.565Z" transform="translate(-439.253 -203.751)" fill="#be6f72"/>
    <rect id="Rectangle_24" data-name="Rectangle 24" width="6.772" height="10.556" transform="translate(107.864 21.676)" fill="#3e373a"/>
    <rect id="Rectangle_25" data-name="Rectangle 25" width="6.772" height="10.556" transform="translate(107.864 21.676)" opacity="0.1"/>
    <path id="Path_83" data-name="Path 83" d="M554.343,404.039s-2.314,2.544-1.456,3.006,6.413,9.122,6.413,9.122,18.245,2.247,21.686-1.124,3.371-9.394,3.371-9.394-2.765.595-3.066.272-1.957-1.882-1.957-1.882S555.93,402.619,554.343,404.039Z" transform="translate(-460.655 -332.01)" fill="#4b4b5b"/>
    <path id="Path_84" data-name="Path 84" d="M554.343,404.039s-2.314,2.544-1.456,3.006,6.413,9.122,6.413,9.122,18.245,2.247,21.686-1.124,3.371-9.394,3.371-9.394-2.765.595-3.066.272-1.957-1.882-1.957-1.882S555.93,402.619,554.343,404.039Z" transform="translate(-460.655 -332.01)" opacity="0.02"/>
    <path id="Path_85" data-name="Path 85" d="M567.117,170.634l-5.949,4.76-1.8.131-.66.048-11.092.813-11.5-.841-1.711-.125-2.182-.159L527.66,170.9a78.111,78.111,0,0,1,6.057-5.793,12.424,12.424,0,0,1,2.935-1.961l.131-.046a3.265,3.265,0,0,0,1.257-.877c2.233-2.3,4.3-7.984,4.3-7.984s9.85-5.089,8.661,1.587,4.428,5.025,4.428,5.025l1.852.845.732.335,1.866.855,4.21,1.932C567.391,166.337,567.117,170.634,567.117,170.634Z" transform="translate(-440.583 -130.767)" fill="#be6f72"/>
    <circle id="Ellipse_7" data-name="Ellipse 7" cx="8.859" cy="8.859" r="8.859" transform="translate(97.712 11.189)" opacity="0.1"/>
    <path id="Path_86" data-name="Path 86" d="M565.8,220.218H526v-.1l.329-5.751a78.1,78.1,0,0,1,6.057-5.793l24.988-.992,1.162-1.226,4.21,1.932c3.306,1.519,3.04,5.817,3.04,5.817S566.238,219.088,565.8,220.218Z" transform="translate(-439.253 -174.04)" opacity="0.1"/>
    <path id="Path_87" data-name="Path 87" d="M565.8,219.218H526v-.1l.329-5.751a78.1,78.1,0,0,1,6.057-5.793l24.988-.992,1.162-1.226,4.21,1.932c3.306,1.519,3.04,5.817,3.04,5.817S566.238,218.088,565.8,219.218Z" transform="translate(-439.253 -173.239)" fill="#e7c7ca"/>
    <path id="Path_88" data-name="Path 88" d="M583.769,186.915s6.279,8,14.642-.165.926,18.211.926,18.211L581.29,207.1Z" transform="translate(-483.578 -157.063)" opacity="0.1"/>
    <path id="Path_89" data-name="Path 89" d="M583.769,188.915s6.279,8,14.642-.165.926,18.211.926,18.211L581.29,209.1Z" transform="translate(-483.578 -158.666)" fill="#e7c7ca"/>
    <path id="Path_90" data-name="Path 90" d="M577.143,201.677l.664,10.132.712,3.371.543,2.578s1.388,19.832.992,20.823.2,1.785.282,2.312-.083,1.852-.018,2.447,0,.859-1.519.647-3.637-.581-3.637-.581-5.354.4-7.2-.264a21.141,21.141,0,0,0-5.355-.662s-5.289.133-7.006-.065-2.646,2.116-3.768,1.454,1.321-7.072,2.114-8.924-1.057-6.544-1.057-6.544l2.38-13.2.529-2.993V202.8l.131-.046a3.265,3.265,0,0,0,1.257-.877l.595,9.468,18.642.662V201.35" transform="translate(-459.726 -170.024)" opacity="0.1"/>
    <path id="Path_91" data-name="Path 91" d="M577.143,199.677l.664,10.132.712,3.371.543,2.578s1.388,19.832.992,20.823.2,1.785.282,2.312-.083,1.852-.018,2.447,0,.859-1.519.647-3.637-.581-3.637-.581-5.354.4-7.2-.264a21.141,21.141,0,0,0-5.355-.662s-5.289.133-7.006-.065-2.646,2.116-3.768,1.454,1.321-7.072,2.114-8.924-1.057-6.544-1.057-6.544l2.38-13.2.529-2.993V200.8l.131-.046a3.265,3.265,0,0,0,1.257-.877l.595,9.468,18.642.662V199.35" transform="translate(-459.726 -168.421)" fill="#e7c7ca"/>
    <path id="Path_92" data-name="Path 92" d="M568.073,56.6a2.185,2.185,0,0,0-.595-1.122,2.436,2.436,0,0,0-1.047-.428,20.69,20.69,0,0,0-2.753-.528,4.4,4.4,0,0,0-.595-1.236c-1.943-2.745-4.819-5.333-8.2-5.918-1.771-.307-3.824-.032-4.958,1.364-.623.767-.891,1.785-1.519,2.538-1.212,1.464-3.4,1.644-4.926,2.776a9.127,9.127,0,0,0-1.983,2.295,7.872,7.872,0,0,0-1.466,2.933c-.4,2.164,1.033,4.226,1.3,6.41.595,4.885-4.641,9.218-3.651,14.037.577,2.81,3.173,4.789,5.858,5.793A4.064,4.064,0,0,1,546,87.135c.2.4.232.855.418,1.255.627,1.337,2.687,1.388,3.794.414a5.911,5.911,0,0,0,1.587-4.018c.531-6.418-2.039-12.758-1.739-19.191.089-1.945.637-4.153,2.38-5.033,2.346-1.19,5.168.793,7.75.414a15.375,15.375,0,0,1,.742,9.382,25.64,25.64,0,0,0-1.172,5.136c-.077,2.687,1.372,5.142,2.626,7.518a4,4,0,0,1,.53,1.45,3.5,3.5,0,0,1-.284,1.517c-.708,1.906-1.93,3.675-2.068,5.7a.922.922,0,0,0,.149.678.853.853,0,0,0,.512.23c2.142.367,3.994-1.531,5.039-3.437a16.111,16.111,0,0,0,1.987-6.846c.216-4.038-1.232-8.01-1.142-12.052C567.212,65.663,569.289,61.037,568.073,56.6Z" transform="translate(-448.512 -46.492)" opacity="0.1"/>
    <path id="Path_93" data-name="Path 93" d="M569.073,55.6a2.185,2.185,0,0,0-.595-1.122,2.435,2.435,0,0,0-1.047-.428,20.689,20.689,0,0,0-2.753-.528,4.406,4.406,0,0,0-.595-1.236c-1.944-2.745-4.819-5.333-8.2-5.918-1.771-.307-3.824-.032-4.958,1.364-.623.767-.891,1.785-1.519,2.538-1.212,1.464-3.4,1.644-4.926,2.776a9.127,9.127,0,0,0-1.983,2.295,7.872,7.872,0,0,0-1.466,2.933c-.4,2.164,1.033,4.226,1.3,6.41.595,4.885-4.641,9.218-3.651,14.037.577,2.81,3.173,4.789,5.858,5.793A4.064,4.064,0,0,1,547,86.135c.2.4.232.855.418,1.255.627,1.337,2.687,1.388,3.794.414a5.911,5.911,0,0,0,1.587-4.018c.531-6.417-2.039-12.758-1.739-19.191.089-1.945.637-4.153,2.38-5.033,2.346-1.19,5.168.793,7.75.414a15.375,15.375,0,0,1,.742,9.382,25.639,25.639,0,0,0-1.172,5.136c-.077,2.687,1.372,5.142,2.626,7.518a4,4,0,0,1,.53,1.45,3.5,3.5,0,0,1-.284,1.517c-.708,1.906-1.93,3.675-2.068,5.7a.922.922,0,0,0,.149.678.853.853,0,0,0,.512.23c2.142.367,3.994-1.531,5.039-3.437a16.111,16.111,0,0,0,1.987-6.846c.216-4.038-1.232-8.01-1.142-12.052C568.212,64.663,570.289,60.037,569.073,55.6Z" transform="translate(-449.314 -45.69)" fill="#3e373a"/>
    <path id="Path_94" data-name="Path 94" d="M581.79,470.163l7.867.252-1.128-5.834-6.027.573Z" transform="translate(-466.412 -372.44)" fill="#c3c7d9"/>
    <path id="Path_95" data-name="Path 95" d="M645.516,416.727c-.529.66-2.578,1.85-2.776,2.247a9.767,9.767,0,0,1-3.9,1.785,32.48,32.48,0,0,0-5.949,1.521,57.99,57.99,0,0,1-7.459,1.973,21.169,21.169,0,0,1-2.259.407c-1.19.065-14.211-4.363-14.211-4.363l2.511-2.578.139-.048c.71-.24,3.99-1.349,5.811-1.876,2.051-.595,4.43-3.04,4.43-3.04s3.5-1.19,3.966-1.323-1.19-4.627-1.19-4.627,7.6-1.055,10.576-1.949,9.85-.563,11.106,2.941S646.053,416.067,645.516,416.727Z" transform="translate(-505.76 -332.833)" fill="#4b4b5b"/>
    <path id="Path_96" data-name="Path 96" d="M550.749,494.427s-1.519,1.587-3.04,1.456-6.84.4-6.84.4a10.662,10.662,0,0,0-2.679,1.553c-1.243.98-1.9.2-2.027.032l-.022-.032c-.662,2.084-2.182.5-2.182.5a67.122,67.122,0,0,0,.458-7.139c-.2-.793,1.307-2.156,1.307-2.156l1.785-.454,4.522-1.158,6.479,2.247Z" transform="translate(-445.634 -399.362)" fill="#e7c7ca"/>
    <path id="Path_97" data-name="Path 97" d="M537.5,493.26l-1.339,9.285-.022-.032c-.662,2.084-2.182.5-2.182.5a67.122,67.122,0,0,0,.458-7.139c-.2-.793,1.307-2.156,1.307-2.156Z" transform="translate(-445.634 -404.044)" opacity="0.1"/>
    <path id="Path_98" data-name="Path 98" d="M599,360.08a10.823,10.823,0,0,0,6.544,0" transform="translate(-497.776 -297.275)" opacity="0.1"/>
    <path id="Path_99" data-name="Path 99" d="M659.29,371.42a2.893,2.893,0,0,0,2.578,0" transform="translate(-546.109 -306.366)" opacity="0.1"/>
    <path id="Path_100" data-name="Path 100" d="M659.29,378.753s2.445.327,2.909-.333" transform="translate(-546.109 -311.978)" opacity="0.1"/>
    <path id="Path_101" data-name="Path 101" d="M655.29,393.138s4.593-.595,5.733-1.388" transform="translate(-542.902 -322.665)" opacity="0.1"/>
    <path id="Path_102" data-name="Path 102" d="M584.62,391.75a10.9,10.9,0,0,0,4.5,1.388" transform="translate(-486.247 -322.665)" opacity="0.1"/>
    <path id="Path_103" data-name="Path 103" d="M625.42,477.762a21.168,21.168,0,0,1-2.259.407c-1.19.065-14.211-4.363-14.211-4.363l2.511-2.578.139-.048c.4.28.722.52.954.7,1.093.861,2.148-.264,2.544-.264s3.833,2.842,3.833,2.842,3.173.728,3.7,1.388,2.38.53,2.709.992A1.77,1.77,0,0,1,625.42,477.762Z" transform="translate(-505.752 -386.342)" opacity="0.1"/>
    <path id="Path_104" data-name="Path 104" d="M490.163,408.263a14.375,14.375,0,0,1-5.059-.595c-1.85-.779-8-2.578-9.783-1.315s-6.082,2.38-4.1,7.405,2.909,5.156,2.909,5.156a7.159,7.159,0,0,1,1.587,1.646c.595.926,6.148,3.04,7.536,3.04a11.524,11.524,0,0,1,7.27,2.38,14.942,14.942,0,0,0,6.544,2.646s4.363,1.785,5.721,2.181,7.566,2.114,9.021,1.587,2.38-3.835,2.38-3.835.66-2.975.329-3.437-2.182-.331-2.709-.992-3.7-1.388-3.7-1.388-3.429-2.844-3.826-2.844-1.452,1.122-2.544.264a58.048,58.048,0,0,0-6.844-4.363C492.384,414.476,490.163,408.263,490.163,408.263Z" transform="translate(-394.927 -334.021)" fill="#4b4b5b"/>
    <path id="Path_105" data-name="Path 105" d="M536.27,427.11a3.788,3.788,0,0,1,3.25.859,57.5,57.5,0,0,0,6.925,3.978" transform="translate(-447.486 -350.951)" opacity="0.1"/>
    <path id="Path_106" data-name="Path 106" d="M702.355,427s-7.074,1.071-8.395,2.525" transform="translate(-573.904 -350.924)" opacity="0.1"/>
    <path id="Path_107" data-name="Path 107" d="M703.8,497.336h-.311a53.329,53.329,0,0,0-5.638,0c-.859.2-12.23,0-12.23,0l2.223-.462s-.825-2.891-.3-3.131c0,0-2.975-1.959-.732-3.282a6.958,6.958,0,0,1,4.66-.766l5.63-1.908,1.081-.367s6.346.331,8.064,4.694S703.8,497.336,703.8,497.336Z" transform="translate(-567.217 -399.362)" fill="#e7c7ca"/>
    <path id="Path_108" data-name="Path 108" d="M750.209,497.376H749.9c1.846-1.523,6.023-6.16-6.388-9.539l1.081-.367s6.346.331,8.063,4.694S750.209,497.376,750.209,497.376Z" transform="translate(-613.627 -399.402)" opacity="0.1"/>
    <circle id="Ellipse_8" data-name="Ellipse 8" cx="0.347" cy="0.347" r="0.347" transform="translate(124.568 92.14)" fill="#4b4b5b"/>
    <circle id="Ellipse_9" data-name="Ellipse 9" cx="0.347" cy="0.347" r="0.347" transform="translate(122.551 92.713)" fill="#4b4b5b"/>
    <g id="Group_1" data-name="Group 1" transform="translate(89.29 12.478)" opacity="0.1">
      <path id="Path_109" data-name="Path 109" d="M613.1,113.835a15.386,15.386,0,0,0-1.138-6.374c-2.578.385-5.4-1.6-7.75-.414-1.737.881-2.283,3.088-2.38,5.033-.024.514-.028,1.027-.018,1.541,0-.182,0-.367.018-.549.091-1.945.637-4.153,2.38-5.033,2.348-1.19,5.168.793,7.75.414A15.347,15.347,0,0,1,613.1,113.835Z" transform="translate(-589.314 -106.593)"/>
      <path id="Path_110" data-name="Path 110" d="M552.39,115.082a6.612,6.612,0,0,0-.026-1.3c-.21-1.745-1.164-3.413-1.337-5.115-.222,2.053,1.085,4.024,1.337,6.106A1.241,1.241,0,0,1,552.39,115.082Z" transform="translate(-548.587 -108.202)"/>
      <path id="Path_111" data-name="Path 111" d="M553.075,207.163a5.834,5.834,0,0,1-1.586,4.02c-1.117.976-3.173.922-3.794-.414-.2-.4-.228-.859-.42-1.255-.44-.908-1.523-1.261-2.469-1.616-2.687-1.005-5.279-2.975-5.856-5.793a6.078,6.078,0,0,1-.105-.773,6.247,6.247,0,0,0,.105,1.765c.577,2.81,3.173,4.787,5.856,5.793.946.355,2.029.708,2.469,1.616.2.4.232.855.42,1.255.625,1.337,2.685,1.388,3.794.414a5.912,5.912,0,0,0,1.586-4.02,22.656,22.656,0,0,0,.062-2.328C553.137,206.276,553.111,206.72,553.075,207.163Z" transform="translate(-538.823 -182.486)"/>
      <path id="Path_112" data-name="Path 112" d="M687.93,116.46v.859c.111-3.689,1.464-7.4,1.331-11.009C689.158,109.65,688.005,113.065,687.93,116.46Z" transform="translate(-658.36 -106.31)"/>
      <path id="Path_113" data-name="Path 113" d="M653.895,196.342a2.556,2.556,0,0,0,.046-.716,3.966,3.966,0,0,0-.53-1.45c-1.146-2.181-2.453-4.414-2.608-6.836,0,.1-.014.2-.016.309-.079,2.685,1.37,5.142,2.624,7.518A4.758,4.758,0,0,1,653.895,196.342Z" transform="translate(-628.581 -171.27)"/>
      <path id="Path_114" data-name="Path 114" d="M662.488,216.657a16.137,16.137,0,0,1-2,6.846c-1.047,1.906-2.9,3.8-5.041,3.437a.843.843,0,0,1-.512-.232.5.5,0,0,1-.093-.155c-.024.155-.044.311-.056.47a.914.914,0,0,0,.149.676.843.843,0,0,0,.512.232c2.144.367,3.994-1.531,5.041-3.437a16.137,16.137,0,0,0,2-6.846c.024-.464.026-.926.012-1.388C662.5,216.393,662.5,216.524,662.488,216.657Z" transform="translate(-631.777 -194.455)"/>
    </g>
    <path id="Path_115" data-name="Path 115" d="M695.31,508.974a7.017,7.017,0,0,0,8.329-2.554" transform="translate(-574.986 -414.594)" fill="none" stroke="#000" stroke-miterlimit="10" stroke-width="1" opacity="0.1"/>
    <path id="Path_116" data-name="Path 116" d="M700.29,532.965a9.786,9.786,0,0,1,9.321-.087" transform="translate(-578.978 -434.904)" fill="none" stroke="#000" stroke-miterlimit="10" stroke-width="1" opacity="0.1"/>
    <path id="Path_117" data-name="Path 117" d="M561.93,526.583s1.721-3.883,6.318-.922" transform="translate(-468.057 -429.126)" fill="none" stroke="#000" stroke-miterlimit="10" stroke-width="1" opacity="0.1"/>
    <path id="Path_118" data-name="Path 118" d="M533.79,229.565l3.51-3.173s13.61-.892,14.174,3.734c0,0,4.825-5.485,14.973-4.264l4.294,3.419-11.867,5.208-11.532,4-8.494-3.8Z" transform="translate(-445.498 -189.533)" opacity="0.1"/>
    <path id="Path_119" data-name="Path 119" d="M533.79,230.565l3.51-3.173s13.61-.892,14.174,3.734c0,0,4.825-5.485,14.973-4.264l4.294,3.419-11.867,5.208-11.532,4-8.494-3.8Z" transform="translate(-445.498 -190.335)" fill="#d5d6db"/>
    <path id="Path_120" data-name="Path 120" d="M437.38,204.83l1.553,18.576,16.46.827-.714-18.5-.014-.311Z" transform="translate(-350.641 -164.203)" opacity="0.1"/>
    <path id="Path_121" data-name="Path 121" d="M437.38,202.83l1.553,18.576,16.46.827-.714-18.5-.014-.311Z" transform="translate(-350.641 -162.6)" fill="#6c63ff"/>
    <path id="Path_122" data-name="Path 122" d="M566.69,202.83l-16.98,2.546v18.66l16.593-2.4Z" transform="translate(-440.694 -162.6)" opacity="0.1"/>
    <path id="Path_123" data-name="Path 123" d="M566.69,200.83l-16.98,2.546v18.66l16.593-2.4Z" transform="translate(-440.694 -160.996)" fill="#6c63ff"/>
    <path id="Path_124" data-name="Path 124" d="M578.062,223.79l-9.172,1.019.2,3.125,8.966-.98Z" transform="translate(-456.07 -179.403)" fill="#fff" opacity="0.3"/>
    <path id="Path_125" data-name="Path 125" d="M536.679,323.2l.934,2.513a3.121,3.121,0,0,0,2.907.595,14.847,14.847,0,0,0,3.5-1.47c.66-.579,1.587-3.488,1.587-3.488s.926-3.173,1.85-3.966,3.371-11.722,0-10.654-5.949,10.985-5.949,10.985a2.352,2.352,0,0,1-1.454.793c-.859.067-2.578-.133-2.909.595S535.687,321.749,536.679,323.2Z" transform="translate(-447.494 -254.449)" fill="#be6f72"/>
    <path id="Path_126" data-name="Path 126" d="M618.16,254.061a5.712,5.712,0,0,1-4.98-1.241l.716,18.495a5.047,5.047,0,0,0,4.264,1.408Z" transform="translate(-509.144 -211.287)" opacity="0.1"/>
    <path id="Path_127" data-name="Path 127" d="M618.16,252.061a5.711,5.711,0,0,1-4.98-1.241l.716,18.495a5.047,5.047,0,0,0,4.264,1.408Z" transform="translate(-509.144 -209.683)" fill="#6c63ff"/>
    <path id="Path_128" data-name="Path 128" d="M618.16,252.061a5.711,5.711,0,0,1-4.98-1.241l.716,18.495a5.047,5.047,0,0,0,4.264,1.408Z" transform="translate(-509.144 -209.683)" opacity="0.1"/>
    <path id="Path_129" data-name="Path 129" d="M640.29,239.119S647.2,237.006,649,237.3" transform="translate(-530.877 -198.825)" opacity="0.1"/>
    <path id="Path_130" data-name="Path 130" d="M569.744,237s-6.7-1.587-7.814-1.136" transform="translate(-468.057 -197.629)" opacity="0.1"/>
    <path id="Path_131" data-name="Path 131" d="M662.25,243.431s4.619-1.694,6.289-.888" transform="translate(-548.482 -202.873)" opacity="0.1"/>
    <path id="Path_132" data-name="Path 132" d="M650.52,448.084a15.182,15.182,0,0,1,2.277-1.414,37.14,37.14,0,0,0,3.371-2.06" transform="translate(-539.078 -365.042)" opacity="0.1"/>
    <path id="Path_133" data-name="Path 133" d="M541.006,360.08s-2.9,2.37-3.768,2.578-1.408,2.057-1.408,2.057" transform="translate(-447.133 -297.275)" opacity="0.1"/>
    <path id="Path_134" data-name="Path 134" d="M664.787,321.447l-.924,2.519a3.123,3.123,0,0,1-2.909.595,14.848,14.848,0,0,1-3.5-1.47c-.662-.579-1.586-3.488-1.586-3.488s-.924-3.173-1.85-3.966-3.371-11.722,0-10.654,5.949,10.985,5.949,10.985a2.351,2.351,0,0,0,1.454.793c.859.067,2.578-.133,2.909.595S665.778,320,664.787,321.447Z" transform="translate(-540.494 -253.046)" fill="#be6f72"/>
    <path id="Path_135" data-name="Path 135" d="M707.15,364.94s1.894,1.218,1.886,2.673" transform="translate(-584.478 -301.171)" opacity="0.1"/>
    <circle id="Ellipse_10" data-name="Ellipse 10" cx="8.859" cy="8.859" r="8.859" transform="translate(97.744 10.755)" fill="#be6f72"/>
    <path id="Path_136" data-name="Path 136" d="M580.338,92.545a18.155,18.155,0,0,0,3.044-1.152c2.3-.807,4.841-.254,7.167.474a9.3,9.3,0,0,0,2.735.595,2.768,2.768,0,0,0,2.408-1.19,2.69,2.69,0,0,0-.016-2.485,7,7,0,0,0-1.618-2c-2.062-1.947-4.621-3.768-7.451-3.57a10.254,10.254,0,0,0-3.274.938,36.09,36.09,0,0,0-3.843,1.936c-.954.553-2.721,1.293-3.27,2.3C574.969,90.677,578.394,92.85,580.338,92.545Z" transform="translate(-479.298 -75.309)" fill="#3e373a"/>
    <path id="Path_137" data-name="Path 137" d="M595.688,113.331a2.768,2.768,0,0,1-2.408,1.19,9.3,9.3,0,0,1-2.737-.583c-2.326-.728-4.867-1.283-7.167-.474a17.264,17.264,0,0,1-3.044,1.15c-1.567.246-4.089-1.118-4.363-2.854-.307,2,2.618,3.722,4.363,3.449a18.253,18.253,0,0,0,3.044-1.15c2.3-.809,4.841-.254,7.167.474a8.925,8.925,0,0,0,2.737.583,2.789,2.789,0,0,0,2.408-1.19,2.322,2.322,0,0,0,.278-1.45,2.137,2.137,0,0,1-.278.855Z" transform="translate(-479.294 -98.201)" opacity="0.1"/>
    <path id="Path_138" data-name="Path 138" d="M1024.917,661.63s1.176,1.537-.543,3.859-3.135,4.282-2.564,5.729c0,0,2.594-4.311,4.7-4.373S1027.236,664.222,1024.917,661.63Z" transform="translate(-836.633 -539.023)" fill="#6c63ff"/>
    <path id="Path_139" data-name="Path 139" d="M1025.189,661.63a1.9,1.9,0,0,1,.24.482c2.058,2.419,3.157,4.678,1.176,4.734-1.844.054-4.056,3.352-4.585,4.182a1.955,1.955,0,0,0,.061.2s2.594-4.311,4.7-4.373S1027.507,664.222,1025.189,661.63Z" transform="translate(-836.904 -539.023)" opacity="0.1"/>
    <path id="Path_140" data-name="Path 140" d="M1047.9,670.111c0,.541-.062.98-.135.98s-.137-.438-.137-.98.075-.286.151-.286S1047.9,669.57,1047.9,670.111Z" transform="translate(-857.435 -545.545)" fill="#ffd037"/>
    <path id="Path_141" data-name="Path 141" d="M1049.044,673.228c-.474.258-.888.414-.924.349s.319-.329.793-.595.288-.071.323,0S1049.52,672.968,1049.044,673.228Z" transform="translate(-857.826 -548.015)" fill="#ffd037"/>
    <path id="Path_142" data-name="Path 142" d="M996,661.63s-1.176,1.537.543,3.859,3.135,4.282,2.562,5.729c0,0-2.592-4.311-4.7-4.373S993.685,664.222,996,661.63Z" transform="translate(-813.928 -539.023)" fill="#6c63ff"/>
    <path id="Path_143" data-name="Path 143" d="M996,661.63a1.9,1.9,0,0,0-.24.482c-2.058,2.419-3.157,4.678-1.176,4.734,1.842.054,4.056,3.352,4.585,4.182a1.527,1.527,0,0,1-.063.2s-2.592-4.311-4.7-4.373S993.685,664.222,996,661.63Z" transform="translate(-813.928 -539.023)" opacity="0.1"/>
    <path id="Path_144" data-name="Path 144" d="M995.64,670.111c0,.541.059.98.135.98s.137-.438.137-.98-.077-.286-.151-.286S995.64,669.57,995.64,670.111Z" transform="translate(-815.756 -545.545)" fill="#ffd037"/>
    <path id="Path_145" data-name="Path 145" d="M990.693,673.228c.474.258.888.414.924.349s-.319-.329-.793-.595-.288-.071-.323,0S990.217,672.968,990.693,673.228Z" transform="translate(-811.558 -548.015)" fill="#ffd037"/>
    <ellipse id="Ellipse_11" data-name="Ellipse 11" cx="12.296" cy="1.886" rx="12.296" ry="1.886" transform="translate(172.882 140.188)" fill="#6c63ff" opacity="0.1"/>
    <path id="Path_146" data-name="Path 146" d="M1003.059,696.628l-.06.48-.083.678-.034.284-.083.678-.036.284-.081.676-.942,7.714c-.083.688-1.208,1.226-2.566,1.226h-4.888c-1.358,0-2.481-.537-2.566-1.226l-.942-7.714-.083-.676-.034-.284-.083-.678-.036-.284-.081-.678-.059-.48c-.046-.4.561-.718,1.331-.718h10C1002.5,695.91,1003.106,696.237,1003.059,696.628Z" transform="translate(-811.553 -566.505)" fill="#65617d"/>
    <path id="Path_147" data-name="Path 147" d="M914.67,658.53l-.081.678H902.213l-.083-.678Z" transform="translate(-723.223 -527.927)" fill="#9d9cb5"/>
    <path id="Path_148" data-name="Path 148" d="M915.026,663.38l-.081.678H902.8l-.083-.678Z" transform="translate(-723.696 -531.815)" fill="#9d9cb5"/>
    <path id="Path_149" data-name="Path 149" d="M915.389,668.23l-.083.678H903.4l-.081-.678Z" transform="translate(-724.177 -535.703)" fill="#9d9cb5"/>
  </g>
</svg>
