<svg xmlns="http://www.w3.org/2000/svg" width="204.5" height="178.86" viewBox="0 0 204.5 178.86">
  <g id="undraw_Mobile_posts_re_bpuw" transform="translate(0)">
    <path id="Path_150" data-name="Path 150" d="M314.271,546.244l-2.109,16.613-3.1-18.872c-14.914-5.723-32.353-6.835-32.353-6.835s-3.848,36.044,8.857,51.115,26.1,12.78,37.154,3.463,15.575-22.133,2.87-37.2A34.587,34.587,0,0,0,314.271,546.244Z" transform="translate(-275.845 -420.288)" fill="#f2f2f2"/>
    <path id="Path_151" data-name="Path 151" d="M309.919,562.461l.626.743c7.236,8.672,11.459,16.638,12.6,23.791.018.1.03.207.049.311l-.484.075-.466.066c-1.149-7.8-6.132-15.982-12.441-23.548-.2-.246-.4-.5-.616-.739-2.7-3.179-5.613-6.24-8.567-9.11-.227-.224-.46-.449-.694-.674-3.919-3.768-7.874-7.191-11.406-10.082-.249-.206-.5-.408-.751-.607-6-4.87-10.672-8.122-11.714-8.835-.126-.089-.2-.136-.213-.148l.266-.394V533.3l.269-.4c.016.012.255.169.687.472,1.621,1.125,5.977,4.216,11.377,8.585.243.2.5.4.744.606,2.869,2.344,6,5.024,9.161,7.949q1.192,1.1,2.322,2.195c.237.222.471.446.7.67Q306.157,558.036,309.919,562.461Z" transform="translate(-275.629 -417.38)" fill="#fff"/>
    <path id="Path_152" data-name="Path 152" d="M287.976,547.919c-.218.241-.441.485-.673.724a26.519,26.519,0,0,1-1.984,1.855,25.813,25.813,0,0,1-10.157,5.266c.01.325.02.65.029.982a26.767,26.767,0,0,0,10.748-5.512,27.466,27.466,0,0,0,2.115-1.984c.228-.237.451-.481.666-.725a26.542,26.542,0,0,0,4.368-6.721l-.966-.205A25.724,25.724,0,0,1,287.976,547.919Z" transform="translate(-275.162 -423.336)" fill="#fff"/>
    <path id="Path_153" data-name="Path 153" d="M301.531,568.188q-.362.343-.743.664c-.074.069-.155.137-.232.2a25.95,25.95,0,0,1-23.456,5.222c.036.341.072.682.114,1.023a26.913,26.913,0,0,0,23.962-5.51c.1-.087.206-.174.306-.264.254-.221.5-.442.746-.667a26.771,26.771,0,0,0,7.68-13.017c-.3-.118-.6-.236-.906-.35A25.772,25.772,0,0,1,301.531,568.188Z" transform="translate(-276.49 -432.855)" fill="#fff"/>
    <path id="Path_154" data-name="Path 154" d="M312.953,587.788c-.239.239-.484.471-.732.7-.267.244-.536.483-.812.716a26.02,26.02,0,0,1-31.139,1.765c.086.437.168.871.261,1.3a26.973,26.973,0,0,0,31.5-2.332c.276-.232.549-.469.808-.713.255-.227.5-.459.742-.695a26.894,26.894,0,0,0,7.987-18.064c-.307-.207-.621-.4-.939-.6A25.936,25.936,0,0,1,312.953,587.788Z" transform="translate(-278.662 -442.707)" fill="#fff"/>
    <path id="Path_155" data-name="Path 155" d="M454.874,208.169v-26.78a15.5,15.5,0,0,0-15.5-15.5H382.638a15.5,15.5,0,0,0-15.5,15.5v17.785h-1v6.267h1v6.684h-1v9.609h1v4.178h-1v9.609h1v92.785a15.5,15.5,0,0,0,15.5,15.5h56.737a15.5,15.5,0,0,0,15.5-15.5V227.231h.978V208.169Z" transform="translate(-337.504 -165.89)" fill="#3f3d56"/>
    <path id="Path_156" data-name="Path 156" d="M451.481,178.7h-7.406a5.5,5.5,0,0,1-5.091,7.576h-32.5a5.5,5.5,0,0,1-5.091-7.576h-6.917A11.575,11.575,0,0,0,382.9,190.275v146.7a11.575,11.575,0,0,0,11.575,11.575h57.01a11.575,11.575,0,0,0,11.575-11.575h0v-146.7A11.575,11.575,0,0,0,451.481,178.7Z" transform="translate(-348.984 -174.668)" fill="#fff"/>
    <path id="Path_157" data-name="Path 157" d="M471.564,281.15H411.686a1.576,1.576,0,0,1-1.574-1.574v-24.3a1.576,1.576,0,0,1,1.574-1.574h59.878a1.576,1.576,0,0,1,1.574,1.574v24.3A1.576,1.576,0,0,1,471.564,281.15Z" transform="translate(-367.634 -226.064)" fill="#6c63ff"/>
    <path id="Path_158" data-name="Path 158" d="M477.931,369.88H429.456a1.731,1.731,0,1,1,0-3.462h48.475a1.731,1.731,0,0,1,0,3.463Z" transform="translate(-379.702 -303.297)" fill="#6c63ff"/>
    <path id="Path_159" data-name="Path 159" d="M477.589,397.2H429.114a1.889,1.889,0,0,1,0-3.777h48.475a1.889,1.889,0,1,1,0,3.777Z" transform="translate(-379.36 -321.798)" fill="#e4e4e4"/>
    <path id="Path_160" data-name="Path 160" d="M477.589,424.7H429.114a1.889,1.889,0,0,1,0-3.777h48.475a1.889,1.889,0,1,1,0,3.777Z" transform="translate(-379.36 -340.642)" fill="#e4e4e4"/>
    <path id="Path_161" data-name="Path 161" d="M471.564,512.15H411.686a1.576,1.576,0,0,1-1.574-1.574v-24.3a1.576,1.576,0,0,1,1.574-1.574h59.878a1.576,1.576,0,0,1,1.574,1.574v24.3A1.576,1.576,0,0,1,471.564,512.15Z" transform="translate(-367.634 -384.351)" fill="#e4e4e4"/>
    <path id="Path_162" data-name="Path 162" d="M477.589,600.7H429.114a1.889,1.889,0,0,1,0-3.777h48.475a1.889,1.889,0,0,1,0,3.777Z" transform="translate(-379.36 -461.242)" fill="#e4e4e4"/>
    <path id="Path_163" data-name="Path 163" d="M477.589,628.2H429.114a1.889,1.889,0,0,1,0-3.777h48.475a1.889,1.889,0,0,1,0,3.777Z" transform="translate(-379.36 -480.086)" fill="#e4e4e4"/>
    <path id="Path_164" data-name="Path 164" d="M477.589,655.7H429.114a1.889,1.889,0,1,1,0-3.777h48.475a1.889,1.889,0,1,1,0,3.777Z" transform="translate(-379.36 -498.93)" fill="#e4e4e4"/>
    <path id="Path_165" data-name="Path 165" d="M709.485,278.1c-.609-4.467-1.373-9.262-4.523-12.486a10.594,10.594,0,0,0-15.306.158,14.016,14.016,0,0,0-3.4,9.233,36.363,36.363,0,0,0,1.482,9.916,30.562,30.562,0,0,0,12.755-2.511,20.55,20.55,0,0,1,3.058-1.2c1.063-.27,1.82.41,2.809.885l.543-1.039c.444.827,1.82.582,2.318-.213A4.1,4.1,0,0,0,709.485,278.1Z" transform="translate(-556.85 -232.038)" fill="#2f2e41"/>
    <path id="Path_166" data-name="Path 166" d="M584.218,507.98,581,510.108l-9.743-11.4,4.751-3.142Z" transform="translate(-391.441 -339.574)" fill="#9e616a"/>
    <path id="Path_167" data-name="Path 167" d="M872.227,700l-10.379,6.864-.087-.131a4.844,4.844,0,0,1,1.368-6.711h0l6.339-4.192Z" transform="translate(-676.565 -529.021)" fill="#2f2e41"/>
    <path id="Path_168" data-name="Path 168" d="M468.032,520.713h-3.859l-1.836-14.885h5.7Z" transform="translate(-316.806 -346.607)" fill="#9e616a"/>
    <path id="Path_169" data-name="Path 169" d="M731.63,720H719.187v-.157A4.843,4.843,0,0,1,724.03,715h7.6Z" transform="translate(-579.42 -542.157)" fill="#2f2e41"/>
    <path id="Path_170" data-name="Path 170" d="M624.356,364.492l-14.571-10.408a2.832,2.832,0,1,0-3.4,2.439c1.821,1.529,15.124,14.759,17.029,14.061,1.933-.708,10.385-1.99,10.385-1.99l.235-8.025Z" transform="translate(-500.587 -292.678)" fill="#9e616a"/>
    <path id="Path_171" data-name="Path 171" d="M704.733,449.8l.138,18.313s3.153,27.134,4.316,31.717,5.884,25.794,5.884,25.794l7.674-1.238L717.8,496.658l1.494-22.984,8.614,23.034,21.872,22.863,5.543-4.473-19.038-27.977L730.472,464.2s.723-11.854-5.792-16.42Z" transform="translate(-569.516 -359.051)" fill="#2f2e41"/>
    <circle id="Ellipse_12" data-name="Ellipse 12" cx="8.411" cy="8.411" r="8.411" transform="translate(131.214 33.66)" fill="#9e616a"/>
    <rect id="Rectangle_26" data-name="Rectangle 26" width="7.646" height="9.94" transform="translate(138.687 100.685) rotate(-65.867)" fill="#2f2e41"/>
    <path id="Path_172" data-name="Path 172" d="M593.233,362.657" transform="translate(-493.113 -300.72)" fill="#6c63ff"/>
    <path id="Path_173" data-name="Path 173" d="M716.865,339.665c-.991-1.973-1.473-4.41-3.586-5.049-1.427-.432-7.2.215-8.5.944-2.163,1.213-.2,3.485-1.479,5.611l-4.162,6.935a21.539,21.539,0,0,0-2.433,4.981,7.255,7.255,0,0,0,.338,5.41c.786,1.461,2.211,2.5,3,3.955.822,1.517-.654,8.288-1.419,9.835l.367.17a82.816,82.816,0,0,0,15.25-.513,7.831,7.831,0,0,0,3.593-1.1c1.523-1.073,2.126-3.02,2.5-4.845A40.819,40.819,0,0,0,716.865,339.665Z" transform="translate(-563.768 -281.41)" fill="#e4e4e4"/>
    <path id="Path_174" data-name="Path 174" d="M692.914,366.128a57.588,57.588,0,0,0,6.445-7.079,19.283,19.283,0,0,0,3.742-8.716,6.455,6.455,0,0,0-.2-3.028,3.107,3.107,0,0,0-2.121-2.031c-1.6-.35-3.048.924-4.187,2.1l-10.077,10.367,6.419,8.45Z" transform="translate(-557.031 -288.769)" fill="#e4e4e4"/>
    <path id="Path_175" data-name="Path 175" d="M742.165,394.011c-.708-1.933-1.99-10.385-1.99-10.385l-8.025-.235,3.924,9.677-10.707,14.988.056.092a2.832,2.832,0,1,0,2.375,3.009.2.2,0,0,0,.245-.042C729.234,409.619,742.874,395.944,742.165,394.011Z" transform="translate(-581.446 -314.927)" fill="#9e616a"/>
    <path id="Path_176" data-name="Path 176" d="M756.7,360.217a57.59,57.59,0,0,0-2.721-9.178,19.283,19.283,0,0,0-5.52-7.713,6.455,6.455,0,0,0-2.7-1.395,3.107,3.107,0,0,0-2.835.764c-1.126,1.185-.787,3.086-.374,4.667l3.654,13.989,10.552-1.119Z" transform="translate(-595.166 -286.471)" fill="#e4e4e4"/>
    <path id="Path_177" data-name="Path 177" d="M710.81,275.474a33.657,33.657,0,0,0-1.155-6,9.72,9.72,0,0,0-3.042-4.8c-2.262-1.718-5.19-1.387-7.726-.4a11.592,11.592,0,0,0-5.258,3.794,9.023,9.023,0,0,0-1.645,6.975l8.115-2.258-.3.246a7.642,7.642,0,0,1,3.487,5.353,9.039,9.039,0,0,1-1.428,6.622l5.534-2.313a5.59,5.59,0,0,0,3.032-2.244C711.21,279.038,711.028,277.162,710.81,275.474Z" transform="translate(-560.67 -232.749)" fill="#2f2e41"/>
    <path id="Path_178" data-name="Path 178" d="M608.552,338.72l-5.411,8.12a1.417,1.417,0,0,1-2.484-.237,1.3,1.3,0,0,1-.085-.27,1.42,1.42,0,0,1,.211-1.064l5.411-8.12a1.416,1.416,0,0,1,2.358,1.571Z" transform="translate(-498.124 -282.809)" fill="#6c63ff"/>
    <path id="Path_179" data-name="Path 179" d="M600.784,363.812l-1.1,1.634-1.938,1.708a.772.772,0,0,1-1.241-.827l.848-2.483,1.068-1.6Z" transform="translate(-495.331 -300.435)" fill="#3f3d56"/>
    <path id="Path_180" data-name="Path 180" d="M618.79,329.565l-2.711,2.39a.772.772,0,0,0,.082,1.222l.513.342-1.484,2.227a.315.315,0,0,0,.524.349l1.484-2.227.513.342a.77.77,0,0,0,1.159-.394l1.161-3.423a.772.772,0,0,0-1.241-.827Z" transform="translate(-508.123 -277.913)" fill="#3f3d56"/>
    <path id="Path_181" data-name="Path 181" d="M479.287,731.367H275.537a.375.375,0,0,1,0-.75h203.75a.375.375,0,1,1,0,.75Z" transform="translate(-275.162 -552.857)" fill="#3f3d56"/>
    <path id="Path_182" data-name="Path 182" d="M497.1,184.677h-8.5a.63.63,0,0,1,0-1.259h8.5a.63.63,0,0,1,0,1.259Z" transform="translate(-420.987 -177.901)" fill="#fff"/>
    <circle id="Ellipse_13" data-name="Ellipse 13" cx="0.63" cy="0.63" r="0.63" transform="translate(79.736 5.517)" fill="#fff"/>
  </g>
</svg>
